# Blender v2.79 (sub 0) OBJ File: 'stylus4_0.blend'
# www.blender.org
mtllib Stylus_Analog_Button.mtl
o Stylus_Analog_Button_Analog
v 0.000000 0.008184 0.038542
v 0.000000 0.009884 0.038542
v 0.001638 0.008184 0.038868
v 0.001638 0.009884 0.038868
v 0.003027 0.008184 0.039796
v 0.003027 0.009884 0.039796
v 0.003955 0.008184 0.041185
v 0.003955 0.009884 0.041185
v 0.004280 0.008184 0.042823
v 0.004280 0.009884 0.042823
v 0.003955 0.008184 0.044461
v 0.003955 0.009884 0.044461
v 0.003027 0.008184 0.045849
v 0.003027 0.009884 0.045849
v 0.001638 0.008184 0.046777
v 0.001638 0.009884 0.046777
v 0.000000 0.008184 0.047103
v 0.000000 0.009884 0.047103
v -0.001638 0.008184 0.046777
v -0.001638 0.009884 0.046777
v -0.003027 0.008184 0.045849
v -0.003027 0.009884 0.045849
v -0.003955 0.008184 0.044461
v -0.003955 0.009884 0.044461
v -0.004280 0.008184 0.042823
v -0.004280 0.009884 0.042823
v -0.003955 0.008184 0.041185
v -0.003955 0.009884 0.041185
v -0.003027 0.008184 0.039796
v -0.003027 0.009884 0.039796
v -0.001638 0.008184 0.038868
v -0.001638 0.009884 0.038868
v 0.000000 0.009884 0.039042
v 0.001447 0.009884 0.039330
v 0.002673 0.009884 0.040149
v 0.003493 0.009884 0.041376
v 0.003780 0.009884 0.042823
v 0.003493 0.009884 0.044269
v 0.002673 0.009884 0.045496
v 0.001447 0.009884 0.046315
v 0.000000 0.009884 0.046603
v -0.001447 0.009884 0.046315
v -0.002673 0.009884 0.045496
v -0.003493 0.009884 0.044269
v -0.003780 0.009884 0.042823
v -0.003493 0.009884 0.041376
v -0.002673 0.009884 0.040149
v -0.001447 0.009884 0.039330
v 0.000000 0.009843 0.039808
v 0.001154 0.009843 0.040037
v 0.002132 0.009843 0.040691
v 0.002785 0.009843 0.041669
v 0.003015 0.009843 0.042823
v 0.002785 0.009843 0.043976
v 0.002132 0.009843 0.044954
v 0.001154 0.009843 0.045608
v 0.000000 0.009843 0.045837
v -0.001154 0.009843 0.045608
v -0.002132 0.009843 0.044954
v -0.002785 0.009843 0.043976
v -0.003015 0.009843 0.042823
v -0.002785 0.009843 0.041669
v -0.002132 0.009843 0.040691
v -0.001154 0.009843 0.040037
v -0.000000 0.009809 0.042197
v 0.000240 0.009809 0.042244
v 0.000443 0.009809 0.042380
v 0.000578 0.009809 0.042583
v 0.000626 0.009809 0.042823
v 0.000578 0.009809 0.043062
v 0.000443 0.009809 0.043265
v 0.000240 0.009809 0.043401
v -0.000000 0.009809 0.043449
v -0.000240 0.009809 0.043401
v -0.000443 0.009809 0.043265
v -0.000578 0.009809 0.043062
v -0.000626 0.009809 0.042823
v -0.000578 0.009809 0.042583
v -0.000443 0.009809 0.042380
v -0.000240 0.009809 0.042244
v -0.000000 0.009803 0.042823
vt 0.803573 0.635348
vt 0.795234 0.589041
vt 0.828365 0.574510
vt 0.853894 0.614323
vt 0.853837 0.548911
vt 0.892493 0.576026
vt 0.867649 0.515402
vt 0.913615 0.525632
vt 0.866958 0.479253
vt 0.913574 0.471019
vt 0.853106 0.445896
vt 0.893052 0.420667
vt 0.827374 0.420379
vt 0.854748 0.381769
vt 0.793799 0.406679
vt 0.804313 0.360401
vt 0.757460 0.406700
vt 0.749363 0.360054
vt 0.724207 0.421200
vt 0.698660 0.381070
vt 0.698606 0.446856
vt 0.659804 0.419478
vt 0.684854 0.480532
vt 0.638426 0.470044
vt 0.684930 0.516945
vt 0.638107 0.525217
vt 0.699378 0.550362
vt 0.659421 0.576221
vt 0.725373 0.575722
vt 0.698544 0.614814
vt 0.759037 0.588989
vt 0.731473 0.566519
vt 0.761033 0.578390
vt 0.749119 0.635349
vt 0.544056 0.994173
vt 0.521505 0.984832
vt 0.504246 0.967573
vt 0.494906 0.945023
vt 0.494906 0.920615
vt 0.504246 0.898064
vt 0.521505 0.880805
vt 0.544056 0.871464
vt 0.568464 0.871464
vt 0.591014 0.880805
vt 0.608273 0.898064
vt 0.617614 0.920615
vt 0.617614 0.945023
vt 0.608273 0.967573
vt 0.591014 0.984832
vt 0.568464 0.994173
vt 0.696074 0.514627
vt 0.695793 0.482546
vt 0.712120 0.485661
vt 0.712360 0.511247
vt 0.844569 0.542899
vt 0.856546 0.513286
vt 0.791769 0.417593
vt 0.759744 0.417803
vt 0.792929 0.577994
vt 0.822305 0.565601
vt 0.708598 0.544161
vt 0.843997 0.452117
vt 0.821331 0.429647
vt 0.707878 0.452898
vt 0.856403 0.481413
vt 0.730258 0.430156
vt 0.830763 0.533795
vt 0.812972 0.551897
vt 0.783919 0.509153
vt 0.787615 0.505389
vt 0.840163 0.484755
vt 0.830301 0.461373
vt 0.722373 0.534761
vt 0.812220 0.443466
vt 0.740546 0.552596
vt 0.788612 0.433871
vt 0.764115 0.562086
vt 0.763085 0.434053
vt 0.789557 0.561808
vt 0.739588 0.443920
vt 0.721721 0.462023
vt 0.840299 0.510177
vt 0.778858 0.484644
vt 0.783756 0.486644
vt 0.776298 0.497963
vt 0.768682 0.486738
vt 0.764960 0.490509
vt 0.789595 0.500502
vt 0.762966 0.495421
vt 0.789555 0.495232
vt 0.763001 0.500725
vt 0.787510 0.490365
vt 0.765075 0.505606
vt 0.768864 0.509311
vt 0.773778 0.511279
vt 0.773564 0.484677
vt 0.779064 0.511222
vn 0.0000 0.0000 -1.0000
vn 0.3827 0.0000 -0.9239
vn 0.7071 0.0000 -0.7071
vn 0.9239 0.0000 -0.3827
vn 1.0000 0.0000 0.0000
vn 0.9239 0.0000 0.3827
vn 0.7071 0.0000 0.7071
vn 0.3827 0.0000 0.9239
vn -0.0000 0.0000 1.0000
vn -0.3827 0.0000 0.9239
vn -0.7071 0.0000 0.7071
vn -0.9239 0.0000 0.3827
vn -1.0000 0.0000 0.0000
vn -0.9239 0.0000 -0.3827
vn -0.7071 0.0000 -0.7071
vn -0.0000 1.0000 -0.0000
vn 0.0166 0.9997 0.0166
vn 0.0090 0.9997 0.0217
vn -0.3827 0.0000 -0.9239
vn 0.0000 -1.0000 -0.0000
vn 0.0235 0.9997 0.0000
vn 0.0217 0.9997 -0.0090
vn 0.0336 0.9993 -0.0139
vn 0.0363 0.9993 -0.0000
vn -0.0166 0.9997 0.0166
vn -0.0217 0.9997 0.0090
vn -0.0090 0.9997 -0.0217
vn 0.0000 0.9997 -0.0235
vn -0.0000 0.9997 0.0235
vn -0.0090 0.9997 0.0217
vn 0.0217 0.9997 0.0090
vn -0.0217 0.9997 -0.0090
vn -0.0166 0.9997 -0.0166
vn 0.0166 0.9997 -0.0166
vn -0.0235 0.9997 0.0000
vn 0.0090 0.9997 -0.0217
vn -0.0257 0.9993 0.0257
vn -0.0139 0.9993 0.0336
vn -0.0046 0.9999 0.0111
vn -0.0085 0.9999 0.0085
vn -0.0363 0.9993 0.0000
vn -0.0336 0.9993 -0.0139
vn 0.0336 0.9993 0.0139
vn -0.0257 0.9993 -0.0257
vn 0.0257 0.9993 0.0257
vn -0.0139 0.9993 -0.0336
vn 0.0139 0.9993 0.0336
vn 0.0000 0.9993 -0.0363
vn -0.0000 0.9993 0.0363
vn 0.0139 0.9993 -0.0336
vn 0.0257 0.9993 -0.0257
vn -0.0336 0.9993 0.0139
vn -0.0046 0.9999 -0.0111
vn -0.0085 0.9999 -0.0085
vn 0.0046 0.9999 -0.0111
vn 0.0085 0.9999 -0.0085
vn -0.0111 0.9999 0.0046
vn 0.0111 0.9999 -0.0046
vn -0.0121 0.9999 -0.0000
vn 0.0121 0.9999 -0.0000
vn -0.0111 0.9999 -0.0046
vn 0.0111 0.9999 0.0046
vn 0.0085 0.9999 0.0085
vn 0.0046 0.9999 0.0111
vn 0.0000 0.9999 -0.0121
vn 0.0000 0.9999 0.0121
usemtl LogiPen
s 1
f 1/1/1 2/2/1 4/3/2 3/4/2
f 3/4/2 4/3/2 6/5/3 5/6/3
f 5/6/3 6/5/3 8/7/4 7/8/4
f 7/8/4 8/7/4 10/9/5 9/10/5
f 9/10/5 10/9/5 12/11/6 11/12/6
f 11/12/6 12/11/6 14/13/7 13/14/7
f 13/14/7 14/13/7 16/15/8 15/16/8
f 15/16/8 16/15/8 18/17/9 17/18/9
f 17/18/9 18/17/9 20/19/10 19/20/10
f 19/20/10 20/19/10 22/21/11 21/22/11
f 21/22/11 22/21/11 24/23/12 23/24/12
f 23/24/12 24/23/12 26/25/13 25/26/13
f 25/26/13 26/25/13 28/27/14 27/28/14
f 27/28/14 28/27/14 30/29/15 29/30/15
f 32/31/16 30/29/16 47/32/17 48/33/18
f 29/30/15 30/29/15 32/31/19 31/34/19
f 31/34/19 32/31/19 2/2/1 1/1/1
f 1/35/20 3/36/20 5/37/20 7/38/20 9/39/20 11/40/20 13/41/20 15/42/20 17/43/20 19/44/20 21/45/20 23/46/20 25/47/20 27/48/20 29/49/20 31/50/20
f 45/51/21 44/52/22 60/53/23 61/54/24
f 8/7/16 6/5/16 35/55/25 36/56/26
f 18/17/16 16/15/16 40/57/27 41/58/28
f 4/3/16 2/2/16 33/59/29 34/60/30
f 28/27/16 26/25/16 45/51/21 46/61/31
f 14/13/16 12/11/16 38/62/32 39/63/33
f 24/23/16 22/21/16 43/64/34 44/52/22
f 2/2/16 32/31/16 48/33/18 33/59/29
f 10/9/16 8/7/16 36/56/26 37/65/35
f 20/19/16 18/17/16 41/58/28 42/66/36
f 30/29/16 28/27/16 46/61/31 47/32/17
f 6/5/16 4/3/16 34/60/30 35/55/25
f 16/15/16 14/13/16 39/63/33 40/57/27
f 26/25/16 24/23/16 44/52/22 45/51/21
f 12/11/16 10/9/16 37/65/35 38/62/32
f 22/21/16 20/19/16 42/66/36 43/64/34
f 51/67/37 50/68/38 66/69/39 67/70/40
f 38/62/32 37/65/35 53/71/41 54/72/42
f 46/61/31 45/51/21 61/54/24 62/73/43
f 39/63/33 38/62/32 54/72/42 55/74/44
f 47/32/17 46/61/31 62/73/43 63/75/45
f 40/57/27 39/63/33 55/74/44 56/76/46
f 48/33/18 47/32/17 63/75/45 64/77/47
f 41/58/28 40/57/27 56/76/46 57/78/48
f 34/60/30 33/59/29 49/79/49 50/68/38
f 33/59/29 48/33/18 64/77/47 49/79/49
f 42/66/36 41/58/28 57/78/48 58/80/50
f 35/55/25 34/60/30 50/68/38 51/67/37
f 43/64/34 42/66/36 58/80/50 59/81/51
f 36/56/26 35/55/25 51/67/37 52/82/52
f 44/52/22 43/64/34 59/81/51 60/53/23
f 37/65/35 36/56/26 52/82/52 53/71/41
f 72/83/53 71/84/54 81/85/16
f 59/81/51 58/80/50 74/86/55 75/87/56
f 52/82/52 51/67/37 67/70/40 68/88/57
f 60/53/23 59/81/51 75/87/56 76/89/58
f 53/71/41 52/82/52 68/88/57 69/90/59
f 61/54/24 60/53/23 76/89/58 77/91/60
f 54/72/42 53/71/41 69/90/59 70/92/61
f 62/73/43 61/54/24 77/91/60 78/93/62
f 55/74/44 54/72/42 70/92/61 71/84/54
f 63/75/45 62/73/43 78/93/62 79/94/63
f 56/76/46 55/74/44 71/84/54 72/83/53
f 64/77/47 63/75/45 79/94/63 80/95/64
f 57/78/48 56/76/46 72/83/53 73/96/65
f 50/68/38 49/79/49 65/97/66 66/69/39
f 49/79/49 64/77/47 80/95/64 65/97/66
f 58/80/50 57/78/48 73/96/65 74/86/55
f 80/95/64 79/94/63 81/85/16
f 73/96/65 72/83/53 81/85/16
f 66/69/39 65/97/66 81/85/16
f 65/97/66 80/95/64 81/85/16
f 74/86/55 73/96/65 81/85/16
f 67/70/40 66/69/39 81/85/16
f 75/87/56 74/86/55 81/85/16
f 68/88/57 67/70/40 81/85/16
f 76/89/58 75/87/56 81/85/16
f 69/90/59 68/88/57 81/85/16
f 77/91/60 76/89/58 81/85/16
f 70/92/61 69/90/59 81/85/16
f 78/93/62 77/91/60 81/85/16
f 71/84/54 70/92/61 81/85/16
f 79/94/63 78/93/62 81/85/16
