# Blender v2.79 (sub 0) OBJ File: 'stylus4_0.blend'
# www.blender.org
mtllib Stylus_Menu.mtl
o Stylus_Menu_Menu
v -0.000000 0.008214 0.076482
v -0.000000 0.010211 0.076482
v 0.001088 0.008214 0.076698
v 0.001088 0.010211 0.076698
v 0.002011 0.008214 0.077315
v 0.002011 0.010211 0.077315
v 0.002628 0.008214 0.078238
v 0.002628 0.010211 0.078238
v 0.002844 0.008214 0.079326
v 0.002844 0.010211 0.079326
v 0.002628 0.008214 0.080414
v 0.002628 0.010211 0.080414
v 0.002011 0.008214 0.081337
v 0.002011 0.010211 0.081337
v 0.001088 0.008214 0.081954
v 0.001088 0.010211 0.081954
v -0.000000 0.008214 0.082170
v -0.000000 0.010211 0.082170
v -0.001088 0.008214 0.081954
v -0.001088 0.010211 0.081954
v -0.002011 0.008214 0.081337
v -0.002011 0.010211 0.081337
v -0.002628 0.008214 0.080414
v -0.002628 0.010211 0.080414
v -0.002844 0.008214 0.079326
v -0.002844 0.010211 0.079326
v -0.002628 0.008214 0.078238
v -0.002628 0.010211 0.078238
v -0.002011 0.008214 0.077315
v -0.002011 0.010211 0.077315
v -0.001088 0.008214 0.076698
v -0.001088 0.010211 0.076698
v -0.000000 0.010211 0.076814
v 0.000961 0.010211 0.077005
v 0.001776 0.010211 0.077550
v 0.002321 0.010211 0.078365
v 0.002512 0.010211 0.079326
v 0.002321 0.010211 0.080287
v 0.001776 0.010211 0.081102
v 0.000961 0.010211 0.081647
v -0.000000 0.010211 0.081838
v -0.000961 0.010211 0.081647
v -0.001776 0.010211 0.081102
v -0.002321 0.010211 0.080287
v -0.002512 0.010211 0.079326
v -0.002321 0.010211 0.078365
v -0.001776 0.010211 0.077550
v -0.000961 0.010211 0.077005
v -0.000000 0.010183 0.077323
v 0.000767 0.010183 0.077475
v 0.001417 0.010183 0.077910
v 0.001851 0.010183 0.078559
v 0.002003 0.010183 0.079326
v 0.001851 0.010183 0.080093
v 0.001417 0.010183 0.080743
v 0.000767 0.010183 0.081177
v -0.000000 0.010183 0.081329
v -0.000767 0.010183 0.081177
v -0.001417 0.010183 0.080743
v -0.001851 0.010183 0.080093
v -0.002003 0.010183 0.079326
v -0.001851 0.010183 0.078559
v -0.001417 0.010183 0.077910
v -0.000767 0.010183 0.077475
v -0.000000 0.010151 0.078910
v 0.000159 0.010151 0.078942
v 0.000294 0.010151 0.079032
v 0.000384 0.010151 0.079167
v 0.000416 0.010151 0.079326
v 0.000384 0.010151 0.079485
v 0.000294 0.010151 0.079620
v 0.000159 0.010151 0.079710
v -0.000000 0.010151 0.079742
v -0.000159 0.010151 0.079710
v -0.000294 0.010151 0.079620
v -0.000384 0.010151 0.079485
v -0.000416 0.010151 0.079326
v -0.000384 0.010151 0.079167
v -0.000294 0.010151 0.079032
v -0.000159 0.010151 0.078942
v -0.000000 0.010147 0.079326
vt 0.670590 0.741656
vt 0.712205 0.751021
vt 0.712781 0.766353
vt 0.670590 0.773602
vt 0.718850 0.780397
vt 0.682683 0.803136
vt 0.729953 0.791149
vt 0.705182 0.825916
vt 0.744369 0.796504
vt 0.734729 0.838341
vt 0.759690 0.796280
vt 0.766766 0.838605
vt 0.773831 0.790117
vt 0.796611 0.826600
vt 0.784560 0.778967
vt 0.819700 0.803983
vt 0.790267 0.764481
vt 0.832358 0.774074
vt 0.789727 0.748933
vt 0.832396 0.741531
vt 0.783362 0.734849
vt 0.819852 0.711602
vt 0.772121 0.724303
vt 0.796835 0.688915
vt 0.757770 0.718944
vt 0.767017 0.676826
vt 0.742368 0.719157
vt 0.734907 0.676969
vt 0.728308 0.725574
vt 0.705297 0.689408
vt 0.717890 0.736761
vt 0.731019 0.729414
vt 0.721764 0.739206
vt 0.682778 0.712139
vt 0.691262 0.939285
vt 0.697560 0.924081
vt 0.709197 0.912445
vt 0.724401 0.906147
vt 0.740857 0.906147
vt 0.756061 0.912445
vt 0.767698 0.924081
vt 0.773995 0.939285
vt 0.773995 0.955742
vt 0.767698 0.970946
vt 0.756061 0.982583
vt 0.740857 0.988880
vt 0.724401 0.988880
vt 0.709197 0.982582
vt 0.697560 0.970946
vt 0.691262 0.955742
vt 0.756995 0.723472
vt 0.769614 0.728274
vt 0.765883 0.734250
vt 0.755806 0.730414
vt 0.722698 0.777682
vt 0.732533 0.787071
vt 0.780533 0.776427
vt 0.785461 0.763655
vt 0.716935 0.751836
vt 0.717253 0.765349
vt 0.743437 0.723864
vt 0.758658 0.791688
vt 0.771101 0.786249
vt 0.779506 0.737570
vt 0.745160 0.791981
vt 0.785097 0.749977
vt 0.728461 0.773651
vt 0.724108 0.763805
vt 0.745499 0.758996
vt 0.746409 0.761046
vt 0.746369 0.785044
vt 0.757147 0.784812
vt 0.744998 0.730728
vt 0.767054 0.780458
vt 0.735109 0.735142
vt 0.774551 0.772616
vt 0.727705 0.742955
vt 0.778470 0.762452
vt 0.723847 0.753027
vt 0.778187 0.751567
vt 0.773753 0.741672
vt 0.736298 0.781129
vt 0.755977 0.760811
vt 0.754426 0.762439
vt 0.751109 0.757733
vt 0.756727 0.756464
vt 0.755812 0.754411
vt 0.748033 0.762594
vt 0.754181 0.752865
vt 0.750126 0.763402
vt 0.752084 0.752062
vt 0.752371 0.763348
vt 0.749840 0.752121
vt 0.747790 0.753033
vt 0.746247 0.754661
vt 0.756784 0.758712
vt 0.745442 0.756754
vn 0.0000 0.0000 -1.0000
vn 0.3827 0.0000 -0.9239
vn 0.7071 0.0000 -0.7071
vn 0.9239 0.0000 -0.3827
vn 1.0000 0.0000 0.0000
vn 0.9239 0.0000 0.3827
vn 0.7071 0.0000 0.7071
vn 0.3827 0.0000 0.9239
vn -0.0000 0.0000 1.0000
vn -0.3827 0.0000 0.9239
vn -0.7071 0.0000 0.7071
vn -0.9239 0.0000 0.3827
vn -1.0000 0.0000 0.0000
vn -0.9239 0.0000 -0.3827
vn -0.7071 0.0000 -0.7071
vn -0.0000 1.0000 -0.0000
vn 0.0166 0.9997 0.0166
vn 0.0090 0.9997 0.0217
vn -0.3827 0.0000 -0.9239
vn 0.0000 -1.0000 0.0000
vn 0.0235 0.9997 0.0000
vn 0.0217 0.9997 -0.0090
vn 0.0361 0.9992 -0.0150
vn 0.0391 0.9992 -0.0000
vn -0.0166 0.9997 0.0166
vn -0.0217 0.9997 0.0090
vn -0.0090 0.9997 -0.0217
vn 0.0000 0.9997 -0.0235
vn 0.0000 0.9997 0.0235
vn -0.0090 0.9997 0.0217
vn 0.0217 0.9997 0.0090
vn -0.0217 0.9997 -0.0090
vn -0.0166 0.9997 -0.0166
vn 0.0166 0.9997 -0.0166
vn -0.0235 0.9997 -0.0000
vn 0.0090 0.9997 -0.0217
vn -0.0276 0.9992 0.0276
vn -0.0150 0.9992 0.0361
vn -0.0060 0.9999 0.0145
vn -0.0111 0.9999 0.0111
vn -0.0391 0.9992 0.0000
vn -0.0361 0.9992 -0.0150
vn 0.0361 0.9992 0.0150
vn -0.0276 0.9992 -0.0276
vn 0.0276 0.9992 0.0276
vn -0.0150 0.9992 -0.0361
vn 0.0150 0.9992 0.0361
vn 0.0000 0.9992 -0.0391
vn 0.0000 0.9992 0.0391
vn 0.0150 0.9992 -0.0361
vn 0.0276 0.9992 -0.0276
vn -0.0361 0.9992 0.0150
vn -0.0060 0.9999 -0.0145
vn -0.0111 0.9999 -0.0111
vn 0.0060 0.9999 -0.0145
vn 0.0111 0.9999 -0.0111
vn -0.0145 0.9999 0.0060
vn 0.0145 0.9999 -0.0060
vn -0.0156 0.9999 0.0000
vn 0.0156 0.9999 -0.0000
vn -0.0145 0.9999 -0.0060
vn 0.0145 0.9999 0.0060
vn 0.0111 0.9999 0.0111
vn 0.0060 0.9999 0.0145
vn 0.0000 0.9999 -0.0156
vn 0.0000 0.9999 0.0156
usemtl LogiPen
s 1
f 1/1/1 2/2/1 4/3/2 3/4/2
f 3/4/2 4/3/2 6/5/3 5/6/3
f 5/6/3 6/5/3 8/7/4 7/8/4
f 7/8/4 8/7/4 10/9/5 9/10/5
f 9/10/5 10/9/5 12/11/6 11/12/6
f 11/12/6 12/11/6 14/13/7 13/14/7
f 13/14/7 14/13/7 16/15/8 15/16/8
f 15/16/8 16/15/8 18/17/9 17/18/9
f 17/18/9 18/17/9 20/19/10 19/20/10
f 19/20/10 20/19/10 22/21/11 21/22/11
f 21/22/11 22/21/11 24/23/12 23/24/12
f 23/24/12 24/23/12 26/25/13 25/26/13
f 25/26/13 26/25/13 28/27/14 27/28/14
f 27/28/14 28/27/14 30/29/15 29/30/15
f 32/31/16 30/29/16 47/32/17 48/33/18
f 29/30/15 30/29/15 32/31/19 31/34/19
f 31/34/19 32/31/19 2/2/1 1/1/1
f 1/35/20 3/36/20 5/37/20 7/38/20 9/39/20 11/40/20 13/41/20 15/42/20 17/43/20 19/44/20 21/45/20 23/46/20 25/47/20 27/48/20 29/49/20 31/50/20
f 45/51/21 44/52/22 60/53/23 61/54/24
f 8/7/16 6/5/16 35/55/25 36/56/26
f 18/17/16 16/15/16 40/57/27 41/58/28
f 4/3/16 2/2/16 33/59/29 34/60/30
f 28/27/16 26/25/16 45/51/21 46/61/31
f 14/13/16 12/11/16 38/62/32 39/63/33
f 24/23/16 22/21/16 43/64/34 44/52/22
f 2/2/16 32/31/16 48/33/18 33/59/29
f 10/9/16 8/7/16 36/56/26 37/65/35
f 20/19/16 18/17/16 41/58/28 42/66/36
f 30/29/16 28/27/16 46/61/31 47/32/17
f 6/5/16 4/3/16 34/60/30 35/55/25
f 16/15/16 14/13/16 39/63/33 40/57/27
f 26/25/16 24/23/16 44/52/22 45/51/21
f 12/11/16 10/9/16 37/65/35 38/62/32
f 22/21/16 20/19/16 42/66/36 43/64/34
f 51/67/37 50/68/38 66/69/39 67/70/40
f 38/62/32 37/65/35 53/71/41 54/72/42
f 46/61/31 45/51/21 61/54/24 62/73/43
f 39/63/33 38/62/32 54/72/42 55/74/44
f 47/32/17 46/61/31 62/73/43 63/75/45
f 40/57/27 39/63/33 55/74/44 56/76/46
f 48/33/18 47/32/17 63/75/45 64/77/47
f 41/58/28 40/57/27 56/76/46 57/78/48
f 34/60/30 33/59/29 49/79/49 50/68/38
f 33/59/29 48/33/18 64/77/47 49/79/49
f 42/66/36 41/58/28 57/78/48 58/80/50
f 35/55/25 34/60/30 50/68/38 51/67/37
f 43/64/34 42/66/36 58/80/50 59/81/51
f 36/56/26 35/55/25 51/67/37 52/82/52
f 44/52/22 43/64/34 59/81/51 60/53/23
f 37/65/35 36/56/26 52/82/52 53/71/41
f 72/83/53 71/84/54 81/85/16
f 59/81/51 58/80/50 74/86/55 75/87/56
f 52/82/52 51/67/37 67/70/40 68/88/57
f 60/53/23 59/81/51 75/87/56 76/89/58
f 53/71/41 52/82/52 68/88/57 69/90/59
f 61/54/24 60/53/23 76/89/58 77/91/60
f 54/72/42 53/71/41 69/90/59 70/92/61
f 62/73/43 61/54/24 77/91/60 78/93/62
f 55/74/44 54/72/42 70/92/61 71/84/54
f 63/75/45 62/73/43 78/93/62 79/94/63
f 56/76/46 55/74/44 71/84/54 72/83/53
f 64/77/47 63/75/45 79/94/63 80/95/64
f 57/78/48 56/76/46 72/83/53 73/96/65
f 50/68/38 49/79/49 65/97/66 66/69/39
f 49/79/49 64/77/47 80/95/64 65/97/66
f 58/80/50 57/78/48 73/96/65 74/86/55
f 80/95/64 79/94/63 81/85/16
f 73/96/65 72/83/53 81/85/16
f 66/69/39 65/97/66 81/85/16
f 65/97/66 80/95/64 81/85/16
f 74/86/55 73/96/65 81/85/16
f 67/70/40 66/69/39 81/85/16
f 75/87/56 74/86/55 81/85/16
f 68/88/57 67/70/40 81/85/16
f 76/89/58 75/87/56 81/85/16
f 69/90/59 68/88/57 81/85/16
f 77/91/60 76/89/58 81/85/16
f 70/92/61 69/90/59 81/85/16
f 78/93/62 77/91/60 81/85/16
f 71/84/54 70/92/61 81/85/16
f 79/94/63 78/93/62 81/85/16
