# Blender v2.79 (sub 0) OBJ File: 'stylus4_0.blend'
# www.blender.org
mtllib Stylus_System.mtl
o Stylus_System_System
v 0.000000 0.008006 0.098197
v 0.000000 0.010262 0.098197
v 0.000556 0.008006 0.098307
v 0.000556 0.010262 0.098307
v 0.001027 0.008006 0.098622
v 0.001027 0.010262 0.098622
v 0.001342 0.008006 0.099094
v 0.001342 0.010262 0.099094
v 0.001453 0.008006 0.099650
v 0.001453 0.010262 0.099650
v 0.001342 0.008006 0.100206
v 0.001342 0.010262 0.100206
v 0.001027 0.008006 0.100677
v 0.001027 0.010262 0.100677
v 0.000556 0.008006 0.100992
v 0.000556 0.010262 0.100992
v 0.000000 0.008006 0.101103
v 0.000000 0.010262 0.101103
v -0.000556 0.008006 0.100992
v -0.000556 0.010262 0.100992
v -0.001027 0.008006 0.100677
v -0.001027 0.010262 0.100677
v -0.001342 0.008006 0.100206
v -0.001342 0.010262 0.100206
v -0.001453 0.008006 0.099650
v -0.001453 0.010262 0.099650
v -0.001342 0.008006 0.099094
v -0.001342 0.010262 0.099094
v -0.001027 0.008006 0.098622
v -0.001027 0.010262 0.098622
v -0.000556 0.008006 0.098307
v -0.000556 0.010262 0.098307
vt 0.864502 0.121932
vt 0.912526 0.090377
vt 0.915078 0.092466
vt 0.882841 0.140100
vt 0.918298 0.093358
vt 0.906699 0.149832
vt 0.921762 0.093177
vt 0.932384 0.149770
vt 0.924854 0.091713
vt 0.956162 0.139965
vt 0.927110 0.089214
vt 0.974439 0.121813
vt 0.928201 0.086084
vt 0.984387 0.098016
vt 0.927975 0.082814
vt 0.984424 0.072197
vt 0.926462 0.079913
vt 0.974512 0.048347
vt 0.923883 0.077851
vt 0.956204 0.030155
vt 0.920625 0.076751
vt 0.932384 0.020358
vt 0.917200 0.076969
vt 0.906610 0.020362
vt 0.914133 0.078464
vt 0.882767 0.030198
vt 0.911889 0.080992
vt 0.864479 0.048409
vt 0.910802 0.084152
vt 0.854558 0.072252
vt 0.911027 0.087451
vt 0.854558 0.098087
vt 0.678779 0.907556
vt 0.675222 0.916143
vt 0.668650 0.922715
vt 0.660064 0.926271
vt 0.650770 0.926271
vt 0.642183 0.922715
vt 0.635612 0.916143
vt 0.632055 0.907556
vt 0.632055 0.898262
vt 0.635612 0.889676
vt 0.642183 0.883104
vt 0.650770 0.879548
vt 0.660064 0.879548
vt 0.668650 0.883104
vt 0.675222 0.889676
vt 0.678779 0.898262
vn -0.0000 0.0000 -1.0000
vn 0.3827 0.0000 -0.9239
vn 0.7071 0.0000 -0.7071
vn 0.9239 0.0000 -0.3827
vn 1.0000 0.0000 -0.0000
vn 0.9239 0.0000 0.3827
vn 0.7071 0.0000 0.7071
vn 0.3827 0.0000 0.9239
vn -0.0000 0.0000 1.0000
vn -0.3827 0.0000 0.9239
vn -0.7071 0.0000 0.7071
vn -0.9239 0.0000 0.3827
vn -1.0000 0.0000 -0.0000
vn -0.9239 0.0000 -0.3827
vn -0.7071 0.0000 -0.7071
vn 0.0000 1.0000 0.0000
vn -0.3827 0.0000 -0.9239
vn 0.0000 -1.0000 0.0000
usemtl LogiPen
s 1
f 1/1/1 2/2/1 4/3/2 3/4/2
f 3/4/2 4/3/2 6/5/3 5/6/3
f 5/6/3 6/5/3 8/7/4 7/8/4
f 7/8/4 8/7/4 10/9/5 9/10/5
f 9/10/5 10/9/5 12/11/6 11/12/6
f 11/12/6 12/11/6 14/13/7 13/14/7
f 13/14/7 14/13/7 16/15/8 15/16/8
f 15/16/8 16/15/8 18/17/9 17/18/9
f 17/18/9 18/17/9 20/19/10 19/20/10
f 19/20/10 20/19/10 22/21/11 21/22/11
f 21/22/11 22/21/11 24/23/12 23/24/12
f 23/24/12 24/23/12 26/25/13 25/26/13
f 25/26/13 26/25/13 28/27/14 27/28/14
f 27/28/14 28/27/14 30/29/15 29/30/15
f 4/3/16 2/2/16 32/31/16 30/29/16 28/27/16 26/25/16 24/23/16 22/21/16 20/19/16 18/17/16 16/15/16 14/13/16 12/11/16 10/9/16 8/7/16 6/5/16
f 29/30/15 30/29/15 32/31/17 31/32/17
f 31/32/17 32/31/17 2/2/1 1/1/1
f 1/33/18 3/34/18 5/35/18 7/36/18 9/37/18 11/38/18 13/39/18 15/40/18 17/41/18 19/42/18 21/43/18 23/44/18 25/45/18 27/46/18 29/47/18 31/48/18
